<?xml version="1.0" encoding="UTF-8" standalone="no"?>
<!-- Created with Inkscape (http://www.inkscape.org/) -->

<svg
   width="50.000019mm"
   height="49.924301mm"
   viewBox="0 0 50.000019 49.924301"
   version="1.1"
   id="svg1"
   inkscape:version="1.4.4 (dcaf3e7d9e, 2026-05-05)"
   sodipodi:docname="edit.svg"
   xmlns:inkscape="http://www.inkscape.org/namespaces/inkscape"
   xmlns:sodipodi="http://sodipodi.sourceforge.net/DTD/sodipodi-0.dtd"
   xmlns="http://www.w3.org/2000/svg"
   xmlns:svg="http://www.w3.org/2000/svg">
  <sodipodi:namedview
     id="namedview1"
     pagecolor="#ffffff"
     bordercolor="#000000"
     borderopacity="0.25"
     inkscape:showpageshadow="2"
     inkscape:pageopacity="0.0"
     inkscape:pagecheckerboard="0"
     inkscape:deskcolor="#d1d1d1"
     inkscape:document-units="mm"
     inkscape:zoom="2.114039"
     inkscape:cx="70.244684"
     inkscape:cy="116.12842"
     inkscape:window-width="1920"
     inkscape:window-height="1050"
     inkscape:window-x="0"
     inkscape:window-y="0"
     inkscape:window-maximized="1"
     inkscape:current-layer="layer1"
     showguides="false" />
  <defs
     id="defs1">
    <inkscape:path-effect
       effect="fillet_chamfer"
       id="path-effect7"
       is_visible="true"
       lpeversion="1"
       nodesatellites_param="F,0,0,1,0,8.7790221,0,1 @ F,0,0,1,0,8.4958279,0,1 @ F,0,0,1,0,0,0,1 @ F,0,0,1,0,0,0,1"
       radius="0"
       unit="px"
       method="auto"
       mode="F"
       chamfer_steps="1"
       flexible="false"
       use_knot_distance="true"
       apply_no_radius="true"
       apply_with_radius="true"
       only_selected="false"
       hide_knots="false" />
  </defs>
  <g
     inkscape:label="Layer 1"
     inkscape:groupmode="layer"
     id="layer1"
     transform="translate(-52.972355,-88.870941)">
    <path
       id="rect1"
       style="fill:#000000;stroke-width:0.452467;paint-order:fill markers stroke"
       d="m 96.792357,89.56703 c -0.931312,-0.929496 -2.429279,-0.927871 -3.358777,0.0034 l -2.093409,2.097492 c 0.292669,0.30957 0.592021,0.612742 0.891056,0.916079 0.411057,0.416265 0.824023,0.830657 1.237419,1.244594 0.37148,0.37184 0.743181,0.743202 1.115109,1.114596 0.378293,0.377728 0.756601,0.755429 1.134967,1.133089 0.344648,0.344001 0.68936,0.688012 1.034017,1.032004 0.357584,0.356892 0.715164,0.713771 1.072744,1.070658 l 1.226655,1.224261 1.111462,1.109307 2.11257,-2.116687 c 0.9295,-0.931312 0.92804,-2.429442 -0.003,-3.358935 z m -6.018235,2.668084 -1.320067,1.322642 0.609025,0.607838 2.214,2.209688 2.047018,2.043036 2.301385,2.296902 1.671171,1.66792 1.30124,-1.30378 -1.111471,-1.109299 -1.22665,-1.224266 C 96.902184,98.388907 96.544613,98.032029 96.187029,97.675141 95.842363,97.33114 95.497669,96.987148 95.153012,96.643138 94.774605,96.265432 94.396216,95.887654 94.017873,95.509881 93.645728,95.138202 93.273701,94.766533 92.901941,94.394456 92.487319,93.9793 92.073131,93.563744 91.66088,93.14623 91.363333,92.844404 91.065583,92.542816 90.774127,92.235109 Z m -2.451504,2.456287 -26.608967,26.660859 c -0.929493,0.93131 -0.928031,2.42911 0.0032,3.3586 l 5.480555,5.46989 c 0.931307,0.9295 2.429275,0.9282 3.358768,-0.003 l 26.608966,-26.66086 -1.671172,-1.66792 -2.301385,-2.296904 -2.047017,-2.043032 -2.214,-2.209688 z" />
    <path
       sodipodi:type="star"
       style="fill:#000000;stroke-width:1;paint-order:fill markers stroke"
       id="path4"
       inkscape:flatsided="true"
       sodipodi:sides="3"
       sodipodi:cx="99.471992"
       sodipodi:cy="208.1478"
       sodipodi:r1="25.242943"
       sodipodi:r2="12.621471"
       sodipodi:arg1="0.38831872"
       sodipodi:arg2="1.4355163"
       inkscape:rounded="1.05"
       inkscape:randomized="2.7755576e-17"
       d="m 122.83552,217.7056 c -17.38234,42.49016 -15.21621,42.19533 -43.322596,5.8967 -28.106389,-36.29862 -28.934119,-34.27528 16.554608,-40.46682 45.488728,-6.19153 44.150328,-7.92004 26.767988,34.57012 z"
       inkscape:transform-center-x="-2.8116791"
       inkscape:transform-center-y="-2.8180286"
       transform="matrix(-0.1999248,0.05199168,0.00479571,-0.19188064,78.877799,166.6422)" />
  </g>
</svg>
