<?xml version="1.0" encoding="UTF-8" standalone="no"?>
<!-- created by svgstack.com | Attribution is required. -->

<svg
   width="80.999084"
   height="98.471123"
   version="1.1"
   id="svg2"
   sodipodi:docname="trash.svg"
   inkscape:version="1.4.4 (dcaf3e7d9e, 2026-05-05)"
   xmlns:inkscape="http://www.inkscape.org/namespaces/inkscape"
   xmlns:sodipodi="http://sodipodi.sourceforge.net/DTD/sodipodi-0.dtd"
   xmlns="http://www.w3.org/2000/svg"
   xmlns:svg="http://www.w3.org/2000/svg">
  <defs
     id="defs2" />
  <sodipodi:namedview
     id="namedview2"
     pagecolor="#ffffff"
     bordercolor="#000000"
     borderopacity="0.25"
     inkscape:showpageshadow="2"
     inkscape:pageopacity="0.0"
     inkscape:pagecheckerboard="0"
     inkscape:deskcolor="#d1d1d1"
     inkscape:zoom="4.2957985"
     inkscape:cx="40.621086"
     inkscape:cy="56.217721"
     inkscape:window-width="1920"
     inkscape:window-height="1050"
     inkscape:window-x="0"
     inkscape:window-y="0"
     inkscape:window-maximized="1"
     inkscape:current-layer="svg2" />
  <path
     d="m 23.490104,0.03770027 29.90038,-0.004 c 5.28297,-0.003 5.2466,-0.73954 6.87317,4.83468003 l 1.78803,6.0529397 c 3.65116,-0.0826 7.32273,0.003 10.97625,0.002 l 3.41801,-0.008 c 4.49349,-0.0131 4.47439,0.85163 4.45581,4.87744 -0.008,1.68463 0.4964,5.53996 -0.7162,6.71735 -1.16446,1.13085 -5.5491,0.68113 -7.351,0.68139 l -14.9286,0.002 -49.2860996,5.7e-4 c -2.01935,0.001 -4.06409,0.0701 -6.08082,0.001 -3.25148001,-0.1106 -2.45295001,-3.76199 -2.45111001,-5.98812 0.004,-5.15979 -0.93249,-6.30222 5.33504001,-6.28821 l 10.7750196,10e-4 c 0.96323,-10e-4 1.94608,-0.0622 2.90565,0.001 0.6691,-2.2194697 1.23563,-4.4962497 1.82885,-6.7379097 0.49012,-1.8509 0.4158,-3.56579003 2.55762,-4.14611003 z m 2.55735,5.17001003 c -0.57071,1.86477 -1.03911,3.8167 -1.49495,5.7140097 0.99516,0.0986 2.03584,0.004 3.03806,10e-4 l 27.35505,-10e-4 h 1.63783 c -0.68611,-1.6408697 -1.43607,-3.9658097 -1.63783,-5.7140097 l -25.63427,-0.002 c -1.08779,-10e-4 -2.17714,-0.0459 -3.26389,0.002 z"
     id="path1"
     style="fill:#ff0000;stroke-width:0.261574" />
  <path
     d="m 5.4729444,23.18874 67.5777596,0.001 c 0.75886,5.8e-4 1.53629,0.0573 2.29201,-0.001 0.0238,0.96638 -0.0803,1.95603 -0.13895,2.92084 l -3.02052,54.37891 c -0.20149,3.43882 -0.006,10.49948 -1.34475,13.45118 -2.84729,5.28948 -6.64316,4.48757 -11.73511,4.48861 l -40.93289,-5.8e-4 c -4.12846,-0.0123 -7.65768,-2.01486 -8.4133996,-6.42006 -0.21091,-1.22968 -0.2164,-2.50146 -0.29595,-3.74552 l -3.74196,-61.06875 c -0.0963,-1.32564 -0.25121,-2.67586 -0.24624,-4.00463 z M 40.383104,33.78417 c -2.85986,0.23271 -2.20357,3.60119 -2.20305,5.61083 v 42.69943 c 2.6e-4,2.37647 -0.14759,4.09823 2.76591,4.04515 2.66334,-0.48083 1.89009,-3.6051 1.89009,-5.80117 l 0.001,-39.61751 c 5.8e-4,-2.3064 0.89938,-6.84025 -2.45399,-6.93673 z m -15.8306,0 c -2.73189,0.61602 -1.94163,3.90868 -1.94189,6.19521 l 10e-4,40.13234 c 5.7e-4,2.32523 -0.85019,6.44386 2.87974,6.02786 1.13959,-0.44188 1.66766,-1.09058 1.70848,-2.28705 0.0822,-2.39896 -0.0128,-4.8293 -0.0104,-7.23192 l 0.003,-31.90632 c 0.002,-2.75221 0.0863,-5.53448 -0.002,-8.28381 -0.0518,-1.61508 -0.80491,-2.80345 -2.63769,-2.64631 z m 31.03684,0 c -2.4205,1.08692 -1.71948,3.87155 -1.70901,6.20828 l 0.004,38.01053 c 0,2.77234 -1.18539,8.37218 2.69893,8.1366 2.54636,-0.20394 1.81367,-3.16297 1.81341,-5.14358 l -0.003,-42.66962 c 0.012,-2.22639 0.31009,-4.71164 -2.80464,-4.54221 z"
     id="path2"
     style="fill:#ff0000;stroke-width:0.261574" />
</svg>
